<svg id="Layer_1" enable-background="new 0 0 512 512" height="512" viewBox="0 0 512 512" width="512" xmlns="http://www.w3.org/2000/svg"><path d="m512 458.809h-464.193c-26.395 0-47.792-21.397-47.792-47.792v-311.26h511.985z" fill="#ffd92e"/><path d="m512 458.809h-464.193c-26.395 0-47.792-21.397-47.792-47.792v-131.734h511.985z" fill="#fcbe00"/><g><path d="m290.259 254.785-26.892-44.032c-29.15 2.128-54.384 18.594-68.66 42.357 50.404 16.389 95.552 1.675 95.552 1.675z" fill="#ff3980"/></g><g><g><path d="m47.792 53.191c-26.395 0-47.792 21.397-47.792 47.792v310.034c0-26.395 21.397-47.792 47.792-47.792h47.792v-310.034z" fill="#ffea94"/><path d="m0 279.283v131.734c0-26.395 21.397-47.792 47.792-47.792h47.792v-83.942z" fill="#ffd92e"/></g><g><g><path d="m263.221 210.514c15.428-25.009 43.08-41.712 74.56-41.712 48.269 0 87.538 39.27 87.538 87.538l-128.422-3.23c-2.23-.001-33.676-42.596-33.676-42.596z" fill="#d0e8ff"/></g><g><path d="m250.308 253.109c-.039 1.073 91.988 90.682 94.212 90.512 45.132-3.453 80.798-41.28 80.798-87.282 0-1.082-.027-2.157-.066-3.23z" fill="#9dcfff"/></g></g></g><g><path d="m250.308 253.109h-55.596c-7.898 13.146-12.447 28.524-12.447 44.945 0 48.269 39.27 87.538 87.538 87.538 31.587 0 59.319-16.818 74.715-41.969z" fill="#e20a6c"/></g><path d="m269.803 210.516c-2.267 0-4.514.087-6.739.257-7.603 12.421-12.199 26.872-12.763 42.336 0 0 43.754 18.285 94.496-.169-15.339-25.403-43.216-42.424-74.994-42.424z" fill="#6e67d5"/><g><path d="m250.303 253.109c-.039 1.072-.061 2.148-.061 3.23 0 48.269 39.27 87.538 87.538 87.538 2.267 0 4.515-.087 6.74-.257 8.13-13.282 12.821-28.886 12.821-45.566 0-16.422-4.549-31.799-12.447-44.945z" fill="#554cce"/></g></svg>